# xmcd
#
# Track frame offsets: 
#        150
#        16534
#        34627
#        50614
#        71235
#        87898
#        106871
#        121528
#        134709
#        149072
#        169417
#
# Disc length: 2497 seconds
#
# Revision: 0
# Processed by: cddbd v1.5.2PL0 Copyright (c) Steve Scherf et al.
# Submitted via: ExactAudioCopy v1.0b1
#
DISCID=9709bf0b
DTITLE=Nuru kane - Number one bus
DYEAR=2009
DGENRE=Pop
TTITLE0=Poulo
TTITLE1=Number one bus
TTITLE2=Love
TTITLE3=Anna
TTITLE4=Bobo
TTITLE5=Maman
TTITLE6=C'est ca
TTITLE7=Fila
TTITLE8=Samaxol
TTITLE9=Ya for
TTITLE10=Salam
EXTD=
EXTT0=
EXTT1=
EXTT2=
EXTT3=
EXTT4=
EXTT5=
EXTT6=
EXTT7=
EXTT8=
EXTT9=
EXTT10=
PLAYORDER=
